<?xml version="1.0" encoding="UTF-8" standalone="no"?>
<svg
   xmlns:dc="http://purl.org/dc/elements/1.1/"
   xmlns:cc="http://creativecommons.org/ns#"
   xmlns:rdf="http://www.w3.org/1999/02/22-rdf-syntax-ns#"
   xmlns:svg="http://www.w3.org/2000/svg"
   xmlns="http://www.w3.org/2000/svg"
   viewBox="0 0 933.33331 842.66669"
   height="842.66669"
   width="933.33331"
   xml:space="preserve"
   id="svg2"
   version="1.1"><metadata
     id="metadata8"><rdf:RDF><cc:Work
         rdf:about=""><dc:format>image/svg+xml</dc:format><dc:type
           rdf:resource="http://purl.org/dc/dcmitype/StillImage" /></cc:Work></rdf:RDF></metadata><defs
     id="defs6"><clipPath
       id="clipPath18"
       clipPathUnits="userSpaceOnUse"><path
         id="path16"
         d="M 0,632 H 700 V 0 H 0 Z" /></clipPath></defs><g
     transform="matrix(1.3333333,0,0,-1.3333333,0,842.66667)"
     id="g10"><g
       id="g12"><g
         clip-path="url(#clipPath18)"
         id="g14"><g
           transform="translate(442.7083,123.0804)"
           id="g20"><path
             id="path22"
             style="fill:#97dcff;fill-opacity:1;fill-rule:nonzero;stroke:none"
             d="m 0,0 c 0,-4.418 -3.582,-8 -8,-8 h -128.167 c -4.418,0 -8,3.582 -8,8 v 170 h -261.208 l 237.167,-207.5 25.666,29.5 90.252,-90.092 c 2.035,-2.031 5.358,-1.932 7.269,0.215 L 193.292,170 H 0 Z" /></g><g
           transform="translate(257.8971,454.944)"
           id="g24"><path
             id="path26"
             style="fill:#6db5ff;fill-opacity:1;fill-rule:nonzero;stroke:none"
             d="m 0,0 -43.506,37.238 c -3.797,3.25 -9.515,2.784 -12.735,-1.039 l -164.323,-195.063 h 406.167 z" /></g><path
           id="path28"
           style="fill:#ff8142;fill-opacity:1;fill-rule:nonzero;stroke:none"
           d="M 321.25,168.83 H 420 v -12.5 h -98.75 z m 0,43.5 H 420 v -12.5 h -98.75 z m 0,47.25 H 420 v -12.5 h -98.75 z m -14.708,-144.5 h 128.166 c 4.419,0 8,3.582 8,8 v 170 H 298.542 v -170 c 0,-4.418 3.581,-8 8,-8" /><g
           transform="translate(539.1036,386.2646)"
           id="g30"><path
             id="path32"
             style="fill:#5a50f8;fill-opacity:1;fill-rule:nonzero;stroke:none"
             d="m 0,0 -0.918,0.855 -45.045,-91.039 h 5.804 0.56 136.495 z" /></g><g
           transform="translate(419.1124,446.0848)"
           id="g34"><path
             id="path36"
             style="fill:#5a50f8;fill-opacity:1;fill-rule:nonzero;stroke:none"
             d="m 0,0 -0.095,0.193 h 0.019 c -3.44,8.891 -5.346,18.545 -5.346,28.649 0,8.542 1.363,16.762 3.858,24.473 l -1.839,1.711 -54.642,50.857 c -3.631,3.379 -9.31,3.184 -12.7,-0.435 L -161.215,8.859 24.388,-150.004 H 73.745 L 6.041,-12.287 C 3.684,-8.401 1.671,-4.286 0,0" /></g><g
           transform="translate(561.1333,433.7974)"
           id="g38"><path
             id="path40"
             style="fill:#ff5858;fill-opacity:1;fill-rule:nonzero;stroke:none"
             d="m 0,0 c 2.356,3.887 4.37,8.002 6.041,12.287 l 0.095,0.194 H 6.117 c 3.44,8.89 5.346,18.544 5.346,28.649 0,43.88 -35.572,79.453 -79.453,79.453 -35.339,0 -65.274,-23.079 -75.595,-54.981 l 120.637,-112.28 z" /></g><g
           transform="translate(417.5485,499.3994)"
           id="g42"><path
             id="path44"
             style="fill:#ff8142;fill-opacity:1;fill-rule:nonzero;stroke:none"
             d="m 0,0 c -2.495,-7.711 -3.858,-15.93 -3.858,-24.472 0,-10.105 1.906,-19.759 5.346,-28.649 H 1.469 l 0.095,-0.194 c 1.671,-4.285 3.684,-8.4 6.041,-12.287 l 67.704,-137.717 h 0.283 l 45.045,91.039 z" /></g><path
           id="path46"
           style="fill:#ff8142;fill-opacity:1;fill-rule:nonzero;stroke:none"
           d="M 423.79,152.54 H 314.5 v 117.71 h 109.29 z" /><path
           id="path48"
           style="fill:#ff5858;fill-opacity:1;fill-rule:nonzero;stroke:none"
           d="m 420,259.58 h -98.75 v -12.5 H 420 Z" /><path
           id="path50"
           style="fill:#ff5858;fill-opacity:1;fill-rule:nonzero;stroke:none"
           d="m 420,212.33 h -98.75 v -12.5 H 420 Z" /><path
           id="path52"
           style="fill:#ff5858;fill-opacity:1;fill-rule:nonzero;stroke:none"
           d="m 420,168.83 h -98.75 v -12.5 H 420 Z" /></g></g></g></svg>